{
    "asset" : {
        "generator" : "Khronos glTF Blender I/O v1.1.26",
        "version" : "2.0"
    },
    "scene" : 0,
    "scenes" : [
        {
            "name" : "Scene",
            "nodes" : [
                0,
                1,
                2
            ]
        }
    ],
    "nodes" : [
        {
            "name" : "Light",
            "rotation" : [
                0.16907575726509094,
                0.7558803558349609,
                -0.27217137813568115,
                0.570947527885437
            ],
            "translation" : [
                4.076245307922363,
                5.903861999511719,
                -1.0054539442062378
            ]
        },
        {
            "name" : "Camera",
            "rotation" : [
                0.483536034822464,
                0.33687159419059753,
                -0.20870360732078552,
                0.7804827094078064
            ],
            "translation" : [
                7.358891487121582,
                4.958309173583984,
                6.925790786743164
            ]
        },
        {
            "mesh" : 0,
            "name" : "jianzhu2",
            "rotation" : [
                0.7071068286895752,
                0,
                0,
                0.7071067094802856
            ],
            "scale" : [
                0.009999999776482582,
                0.009999999776482582,
                0.009999999776482582
            ],
            "translation" : [
                0,
                0,
                -1.2159347534179688e-05
            ]
        }
    ],
    "materials" : [
        {
            "doubleSided" : true,
            "emissiveFactor" : [
                0,
                0,
                0
            ],
            "name" : "texture6.003",
            "pbrMetallicRoughness" : {
                "baseColorTexture" : {
                    "index" : 0,
                    "texCoord" : 0
                },
                "metallicFactor" : 0,
                "roughnessFactor" : 0.5527864098548889
            }
        },
        {
            "doubleSided" : true,
            "emissiveFactor" : [
                0,
                0,
                0
            ],
            "name" : "texture4.003",
            "pbrMetallicRoughness" : {
                "baseColorTexture" : {
                    "index" : 1,
                    "texCoord" : 0
                },
                "metallicFactor" : 0,
                "roughnessFactor" : 0.5527864098548889
            }
        },
        {
            "doubleSided" : true,
            "emissiveFactor" : [
                0,
                0,
                0
            ],
            "name" : "texture1.003",
            "pbrMetallicRoughness" : {
                "baseColorTexture" : {
                    "index" : 2,
                    "texCoord" : 0
                },
                "metallicFactor" : 0,
                "roughnessFactor" : 0.5527864098548889
            }
        },
        {
            "doubleSided" : true,
            "emissiveFactor" : [
                0,
                0,
                0
            ],
            "name" : "texture7.003",
            "pbrMetallicRoughness" : {
                "baseColorTexture" : {
                    "index" : 3,
                    "texCoord" : 0
                },
                "metallicFactor" : 0,
                "roughnessFactor" : 0.5527864098548889
            }
        },
        {
            "doubleSided" : true,
            "emissiveFactor" : [
                0,
                0,
                0
            ],
            "name" : "texture2.003",
            "pbrMetallicRoughness" : {
                "baseColorTexture" : {
                    "index" : 4,
                    "texCoord" : 0
                },
                "metallicFactor" : 0,
                "roughnessFactor" : 0.5527864098548889
            }
        },
        {
            "doubleSided" : true,
            "emissiveFactor" : [
                0,
                0,
                0
            ],
            "name" : "texture5.003",
            "pbrMetallicRoughness" : {
                "baseColorTexture" : {
                    "index" : 5,
                    "texCoord" : 0
                },
                "metallicFactor" : 0,
                "roughnessFactor" : 0.5527864098548889
            }
        },
        {
            "doubleSided" : true,
            "emissiveFactor" : [
                0,
                0,
                0
            ],
            "name" : "texture3.003",
            "pbrMetallicRoughness" : {
                "baseColorTexture" : {
                    "index" : 6,
                    "texCoord" : 0
                },
                "metallicFactor" : 0,
                "roughnessFactor" : 0.5527864098548889
            }
        }
    ],
    "meshes" : [
        {
            "name" : "Mesh.010",
            "primitives" : [
                {
                    "attributes" : {
                        "POSITION" : 0,
                        "NORMAL" : 1,
                        "TEXCOORD_0" : 2
                    },
                    "indices" : 3,
                    "material" : 0
                },
                {
                    "attributes" : {
                        "POSITION" : 4,
                        "NORMAL" : 5,
                        "TEXCOORD_0" : 6
                    },
                    "indices" : 7,
                    "material" : 1
                },
                {
                    "attributes" : {
                        "POSITION" : 8,
                        "NORMAL" : 9,
                        "TEXCOORD_0" : 10
                    },
                    "indices" : 11,
                    "material" : 2
                },
                {
                    "attributes" : {
                        "POSITION" : 12,
                        "NORMAL" : 13,
                        "TEXCOORD_0" : 14
                    },
                    "indices" : 15,
                    "material" : 3
                },
                {
                    "attributes" : {
                        "POSITION" : 16,
                        "NORMAL" : 17,
                        "TEXCOORD_0" : 18
                    },
                    "indices" : 19,
                    "material" : 4
                },
                {
                    "attributes" : {
                        "POSITION" : 20,
                        "NORMAL" : 21,
                        "TEXCOORD_0" : 22
                    },
                    "indices" : 23,
                    "material" : 5
                },
                {
                    "attributes" : {
                        "POSITION" : 24,
                        "NORMAL" : 25,
                        "TEXCOORD_0" : 26
                    },
                    "indices" : 27,
                    "material" : 6
                }
            ]
        }
    ],
    "textures" : [
        {
            "source" : 0
        },
        {
            "source" : 1
        },
        {
            "source" : 2
        },
        {
            "source" : 3
        },
        {
            "source" : 4
        },
        {
            "source" : 5
        },
        {
            "source" : 6
        }
    ],
    "images" : [
        {
            "mimeType" : "image/png",
            "name" : "texture6_D",
            "uri" : "texture6_D.png"
        },
        {
            "mimeType" : "image/png",
            "name" : "texture4_D",
            "uri" : "texture4_D.png"
        },
        {
            "mimeType" : "image/png",
            "name" : "texture1_D",
            "uri" : "texture1_D.png"
        },
        {
            "mimeType" : "image/png",
            "name" : "texture7_D",
            "uri" : "texture7_D.png"
        },
        {
            "mimeType" : "image/png",
            "name" : "texture2_D",
            "uri" : "texture2_D.png"
        },
        {
            "mimeType" : "image/png",
            "name" : "texture5_D",
            "uri" : "texture5_D.png"
        },
        {
            "mimeType" : "image/png",
            "name" : "texture3_D",
            "uri" : "texture3_D.png"
        }
    ],
    "accessors" : [
        {
            "bufferView" : 0,
            "componentType" : 5126,
            "count" : 8,
            "max" : [
                7770.03955078125,
                6272.6552734375,
                -1399.9998779296875
            ],
            "min" : [
                2597.728759765625,
                4272.6552734375,
                -1399.9998779296875
            ],
            "type" : "VEC3"
        },
        {
            "bufferView" : 1,
            "componentType" : 5126,
            "count" : 8,
            "type" : "VEC3"
        },
        {
            "bufferView" : 2,
            "componentType" : 5126,
            "count" : 8,
            "type" : "VEC2"
        },
        {
            "bufferView" : 3,
            "componentType" : 5123,
            "count" : 12,
            "type" : "SCALAR"
        },
        {
            "bufferView" : 4,
            "componentType" : 5126,
            "count" : 198,
            "max" : [
                9194.080078125,
                9567.537109375,
                0.0008544921875
            ],
            "min" : [
                -5369.01220703125,
                -9297.064453125,
                -4400
            ],
            "type" : "VEC3"
        },
        {
            "bufferView" : 5,
            "componentType" : 5126,
            "count" : 198,
            "type" : "VEC3"
        },
        {
            "bufferView" : 6,
            "componentType" : 5126,
            "count" : 198,
            "type" : "VEC2"
        },
        {
            "bufferView" : 7,
            "componentType" : 5123,
            "count" : 264,
            "type" : "SCALAR"
        },
        {
            "bufferView" : 8,
            "componentType" : 5126,
            "count" : 1935,
            "max" : [
                9592.4375,
                10231.1845703125,
                6.103515625e-05
            ],
            "min" : [
                -8570.7509765625,
                -9518.4423828125,
                -4500.00048828125
            ],
            "type" : "VEC3"
        },
        {
            "bufferView" : 9,
            "componentType" : 5126,
            "count" : 1935,
            "type" : "VEC3"
        },
        {
            "bufferView" : 10,
            "componentType" : 5126,
            "count" : 1935,
            "type" : "VEC2"
        },
        {
            "bufferView" : 11,
            "componentType" : 5123,
            "count" : 2523,
            "type" : "SCALAR"
        },
        {
            "bufferView" : 12,
            "componentType" : 5126,
            "count" : 296,
            "max" : [
                9202.826171875,
                9899.7421875,
                -50
            ],
            "min" : [
                -8608.51171875,
                -9297.064453125,
                -4070.521484375
            ],
            "type" : "VEC3"
        },
        {
            "bufferView" : 13,
            "componentType" : 5126,
            "count" : 296,
            "type" : "VEC3"
        },
        {
            "bufferView" : 14,
            "componentType" : 5126,
            "count" : 296,
            "type" : "VEC2"
        },
        {
            "bufferView" : 15,
            "componentType" : 5123,
            "count" : 432,
            "type" : "SCALAR"
        },
        {
            "bufferView" : 16,
            "componentType" : 5126,
            "count" : 1064,
            "max" : [
                9294.08203125,
                9645.916015625,
                0.007324219215661287
            ],
            "min" : [
                -8647.021484375,
                -9556.8046875,
                -4500
            ],
            "type" : "VEC3"
        },
        {
            "bufferView" : 17,
            "componentType" : 5126,
            "count" : 1064,
            "type" : "VEC3"
        },
        {
            "bufferView" : 18,
            "componentType" : 5126,
            "count" : 1064,
            "type" : "VEC2"
        },
        {
            "bufferView" : 19,
            "componentType" : 5123,
            "count" : 1590,
            "type" : "SCALAR"
        },
        {
            "bufferView" : 20,
            "componentType" : 5126,
            "count" : 96,
            "max" : [
                9294.0810546875,
                9645.916015625,
                0.0087890625
            ],
            "min" : [
                -8647.021484375,
                -9556.8046875,
                -4499.99169921875
            ],
            "type" : "VEC3"
        },
        {
            "bufferView" : 21,
            "componentType" : 5126,
            "count" : 96,
            "type" : "VEC3"
        },
        {
            "bufferView" : 22,
            "componentType" : 5126,
            "count" : 96,
            "type" : "VEC2"
        },
        {
            "bufferView" : 23,
            "componentType" : 5123,
            "count" : 144,
            "type" : "SCALAR"
        },
        {
            "bufferView" : 24,
            "componentType" : 5126,
            "count" : 112,
            "max" : [
                9101.8486328125,
                6322.65576171875,
                0.0087890625
            ],
            "min" : [
                1716.73779296875,
                2770.0185546875,
                -4449.99169921875
            ],
            "type" : "VEC3"
        },
        {
            "bufferView" : 25,
            "componentType" : 5126,
            "count" : 112,
            "type" : "VEC3"
        },
        {
            "bufferView" : 26,
            "componentType" : 5126,
            "count" : 112,
            "type" : "VEC2"
        },
        {
            "bufferView" : 27,
            "componentType" : 5123,
            "count" : 150,
            "type" : "SCALAR"
        }
    ],
    "bufferViews" : [
        {
            "buffer" : 0,
            "byteLength" : 96,
            "byteOffset" : 0
        },
        {
            "buffer" : 0,
            "byteLength" : 96,
            "byteOffset" : 96
        },
        {
            "buffer" : 0,
            "byteLength" : 64,
            "byteOffset" : 192
        },
        {
            "buffer" : 0,
            "byteLength" : 24,
            "byteOffset" : 256
        },
        {
            "buffer" : 0,
            "byteLength" : 2376,
            "byteOffset" : 280
        },
        {
            "buffer" : 0,
            "byteLength" : 2376,
            "byteOffset" : 2656
        },
        {
            "buffer" : 0,
            "byteLength" : 1584,
            "byteOffset" : 5032
        },
        {
            "buffer" : 0,
            "byteLength" : 528,
            "byteOffset" : 6616
        },
        {
            "buffer" : 0,
            "byteLength" : 23220,
            "byteOffset" : 7144
        },
        {
            "buffer" : 0,
            "byteLength" : 23220,
            "byteOffset" : 30364
        },
        {
            "buffer" : 0,
            "byteLength" : 15480,
            "byteOffset" : 53584
        },
        {
            "buffer" : 0,
            "byteLength" : 5046,
            "byteOffset" : 69064
        },
        {
            "buffer" : 0,
            "byteLength" : 3552,
            "byteOffset" : 74112
        },
        {
            "buffer" : 0,
            "byteLength" : 3552,
            "byteOffset" : 77664
        },
        {
            "buffer" : 0,
            "byteLength" : 2368,
            "byteOffset" : 81216
        },
        {
            "buffer" : 0,
            "byteLength" : 864,
            "byteOffset" : 83584
        },
        {
            "buffer" : 0,
            "byteLength" : 12768,
            "byteOffset" : 84448
        },
        {
            "buffer" : 0,
            "byteLength" : 12768,
            "byteOffset" : 97216
        },
        {
            "buffer" : 0,
            "byteLength" : 8512,
            "byteOffset" : 109984
        },
        {
            "buffer" : 0,
            "byteLength" : 3180,
            "byteOffset" : 118496
        },
        {
            "buffer" : 0,
            "byteLength" : 1152,
            "byteOffset" : 121676
        },
        {
            "buffer" : 0,
            "byteLength" : 1152,
            "byteOffset" : 122828
        },
        {
            "buffer" : 0,
            "byteLength" : 768,
            "byteOffset" : 123980
        },
        {
            "buffer" : 0,
            "byteLength" : 288,
            "byteOffset" : 124748
        },
        {
            "buffer" : 0,
            "byteLength" : 1344,
            "byteOffset" : 125036
        },
        {
            "buffer" : 0,
            "byteLength" : 1344,
            "byteOffset" : 126380
        },
        {
            "buffer" : 0,
            "byteLength" : 896,
            "byteOffset" : 127724
        },
        {
            "buffer" : 0,
            "byteLength" : 300,
            "byteOffset" : 128620
        }
    ],
    "buffers" : [
        {
            "byteLength" : 128920,
            "uri" : "building3.bin"
        }
    ]
}
